# xmcd
#
# Track frame offsets:
#	150
#	11715
#	26780
#	39840
#	49170
#	63377
#	76750
#	91775
#	104910
#	121695
#	134507
#	148932
#	160445
#	171520
#	184055
#	195125
#	210677
#	221735
#	235725
#	250107
#	264437
#	279640
#	296842
#	309720
#	320817
#
# Disc length: 4443 seconds
#
# Revision: 0
# Processed by: cddbd v1.5.2PL0 Copyright (c) Steve Scherf et al.
# Submitted via: EasyCDDAExtractor 12.0.1.1
#
DISCID=7a115919
DTITLE=Mac Wiseman - The Mac Wiseman Story CD5  (CMH 2001)
DYEAR=1900
DGENRE=Bluegrass
TTITLE0=Bubbles In My Beer
TTITLE1=Slipping Around
TTITLE2=I Wish I Had Never Seen Sunshine
TTITLE3=Home In San Antone
TTITLE4=My Mary
TTITLE5=No Letter Today
TTITLE6=Yesterday's Girl
TTITLE7=Love Letters In The Sand
TTITLE8=I Love You Because
TTITLE9=Time Changes Everything
TTITLE10=Worried Mind
TTITLE11=Drivin' Nails In My Coffin
TTITLE12=Waltz Across Texas
TTITLE13=It Makes No Difference Now
TTITLE14=Divorce Me C.O.D.
TTITLE15=Born To Lose
TTITLE16=I Wonder How The Old Folks Are At Home
TTITLE17=The Wild Side Of Life
TTITLE18=Oklahoma Hills
TTITLE19=(Remember Me) I'm The One Who Loves You
TTITLE20=Live And Let Live
TTITLE21=One Has My Name, The Other Has My Heart
TTITLE22=Pins And Needles (In My Heart)
TTITLE23=Are You Coming Back To Me
TTITLE24=The Bluebirds Are Singing For Me
EXTD=
EXTT0=
EXTT1=
EXTT2=
EXTT3=
EXTT4=
EXTT5=
EXTT6=
EXTT7=
EXTT8=
EXTT9=
EXTT10=
EXTT11=
EXTT12=
EXTT13=
EXTT14=
EXTT15=
EXTT16=
EXTT17=
EXTT18=
EXTT19=
EXTT20=
EXTT21=
EXTT22=
EXTT23=
EXTT24=
PLAYORDER=
